<?xml version="1.0" encoding="UTF-8"?>
<!DOCTYPE svg PUBLIC "-//W3C//DTD SVG 1.1//EN" "http://www.w3.org/Graphics/SVG/1.1/DTD/svg11.dtd">
<!-- Creator: CorelDRAW 2019 (64-Bit) -->
<svg xmlns="http://www.w3.org/2000/svg" xml:space="preserve" width="42.3332mm" height="12.7mm" version="1.1" style="shape-rendering:geometricPrecision; text-rendering:geometricPrecision; image-rendering:optimizeQuality; fill-rule:evenodd; clip-rule:evenodd"
viewBox="0 0 4233.32 1270"
 xmlns:xlink="http://www.w3.org/1999/xlink"
 xmlns:xodm="http://www.corel.com/coreldraw/odm/2003">
 <defs>
  <style type="text/css">
   <![CDATA[
    .fil0 {fill:#373435;fill-rule:nonzero}
   ]]>
  </style>
 </defs>
 <g id="Capa_x0020_1">
  <metadata id="CorelCorpID_0Corel-Layer"/>
  <path class="fil0" d="M371.55 281.28l0 18.62 78 0 0 216.93 53.94 0 0 -216.93 78 0 0 -46.95 -182.77 0c-15.14,0 -27.17,13.19 -27.17,28.33zm234.78 -28.33l0 40.36 51.61 0 0 -15.14c0.39,-16.68 -7.76,-25.22 -24.83,-25.22l-26.78 0zm0 58.6l0 205.28 51.61 0 0 -180.45c0,-16.68 -8.15,-24.83 -24.83,-24.83l-26.78 0zm261.95 142.41l-38.03 0c-6.99,0 -12.81,2.33 -17.47,7.38 -10.09,9.7 -21.34,14.74 -33.37,14.74 -25.22,0 -38.81,-15.91 -40.75,-47.34l132.72 0c3.88,-80.33 -26.78,-120.3 -91.97,-120.3 -62.48,0.39 -93.91,35.32 -93.91,105.17 0,69.85 31.04,105.94 93.13,107.88 50.45,0 78.39,-24.06 89.65,-67.53zm-89.65 -103.22c22.12,0 34.93,13.97 38.03,41.13l-77.22 0c3.88,-27.16 17.07,-41.13 39.19,-41.13zm291.83 166.09l0 -120.69c0.39,-58.59 -28.33,-87.7 -86.93,-87.7 -58.6,0 -88.09,29.11 -88.09,87.7l0 120.69 52.39 0 0 -131.16c0.39,-21.35 12.03,-31.83 34.93,-31.83 22.89,0 34.53,10.48 35.7,31.83l0 105.55c0,16.3 8.53,24.45 25.61,25.61l26.39 0zm117.97 -162.21c27.94,0 42.3,19.4 43.46,58.99 0,41.52 -14.74,62.47 -44.24,62.47 -29.49,0 -43.46,-20.95 -43.07,-62.47 1.55,-39.59 15.91,-58.99 43.85,-58.99zm69.07 -101.67l-25.61 0 0 87.31c-13.19,-21.34 -32.98,-31.82 -58.6,-31.82 -54.71,1.94 -81.88,37.64 -81.88,107.49 0,68.3 31.82,102.84 95.47,104 64.03,0.39 96.24,-30.26 96.24,-91.97l0 -149.01c0,-13.97 -11.65,-26 -25.62,-26zm121.08 225.85c-16.3,0 -24.83,-7.76 -26,-24.06 0,-15.13 10.48,-24.84 31.05,-28.72 15.13,-3.1 29.1,-7.37 41.13,-12.41l0 19.01c0,29.11 -17.46,46.18 -46.18,46.18zm12.03 -128.06c21.34,0 32.21,5.82 33.37,17.46 0,11.26 -11.25,17.85 -33.37,20.57 -52,5.04 -87.7,18.24 -88.86,67.52 0,45.41 34.14,68.3 83.43,64.42 55.49,-3.88 89.64,-29.1 89.64,-85.76l0 -69.85c-1.16,-38.03 -29.88,-56.66 -86.54,-56.66 -47.34,0 -74.12,18.63 -80.33,56.66l51.62 0c2.71,-9.7 12.8,-14.36 31.04,-14.36zm524.26 74.51l-52.38 0c-5.82,29.1 -25.23,47.73 -58.99,47.73 -49.28,0 -70.63,-36.48 -70.63,-88.09 0,-53.16 22.12,-88.48 72.18,-88.48 25.62,0 43.08,9.7 52,28.72 5.05,10.48 13.59,15.91 25.23,15.91l32.59 0c-2.71,-28.72 -13.19,-51.61 -31.82,-68.3 -19.79,-16.3 -45.79,-24.06 -78,-24.06 -83.43,0 -126.12,51.22 -126.12,136.21 0,82.27 40.36,135.82 121.47,135.82 66.74,0 109.43,-34.54 114.47,-95.46zm117.58 -116.81c-62.09,0 -93.13,35.32 -93.13,106.72 0,70.63 31.04,106.33 93.13,106.33 62.09,0 93.53,-35.7 93.53,-106.33 0,-71.4 -31.44,-106.72 -93.53,-106.72zm0 45.4c26.39,0 39.59,19.8 39.59,59.77 -0.39,40.74 -13.59,61.7 -39.97,61.7 -26.39,0 -39.97,-20.18 -40.36,-60.15 0,-40.75 13.58,-61.32 40.74,-61.32zm205.68 0c22.89,0 34.53,10.48 35.7,31.83l0 131.16 52 0 0 -130.39c0.39,-21.34 12.03,-31.82 34.92,-31.82 22.9,0 34.54,10.48 35.7,31.82l0 105.55c0,16.3 8.54,24.45 25.62,25.62l26.77 0 0 -120.69c0.39,-58.6 -28.71,-87.7 -87.31,-87.7 -26.39,0 -46.57,5.43 -61.31,16.68 -14.75,-11.64 -34.93,-17.46 -61.32,-17.46 -58.6,0 -88.09,29.11 -88.09,87.7l0 120.69 52.39 0 0 -131.16c0.39,-21.35 12.03,-31.83 34.93,-31.83zm292.2 217.71c0,17.07 -8.53,25.61 -25.61,25.61l-26 0 0 -196.36c2.72,-61.31 34.54,-91.58 96.24,-91.58 63.64,0 95.46,34.54 95.46,103.61 0,69.85 -27.16,105.94 -81.88,107.88 -25.61,0 -45.01,-10.48 -58.21,-31.82l0 82.66zm43.85 -97.02c27.95,0 42.3,-19.79 43.47,-59.37 0,-41.52 -14.75,-62.09 -44.24,-62.09 -29.49,0 -43.46,20.57 -43.08,62.09 1.56,39.58 15.91,59.37 43.85,59.37zm292.99 -162.98l-26.39 0c-17.07,0 -25.22,8.53 -24.84,25.61l0 108.27c0,22.89 -11.64,34.15 -34.92,34.15 -23.28,0 -34.93,-11.26 -34.93,-34.15l0 -133.88 -51.61 0 0 123.4c0,34.54 8.93,57.04 26.78,68.3 17.85,11.64 36.86,17.46 58.21,17.46 22.12,0 42.3,-5.43 60.53,-15.91 18.24,-11.25 27.17,-34.54 27.17,-69.85l0 -123.4zm105.16 11.25l0 -11.25 -31.05 0 0 -32.6c0,-13.58 -11.25,-26 -24.83,-26l-26.78 0 0 224.3c-0.39,22.89 8.93,34.92 28.33,36.86 19.4,1.94 37.64,1.94 54.33,0.39l0 -39.19 -15.91 0c-10.09,0 -15.14,-4.66 -15.14,-13.2l0 -113.7 5.44 0c14.36,0 25.61,-10.86 25.61,-25.61zm93.91 156c-16.3,0 -24.83,-7.76 -26,-24.06 0,-15.13 10.48,-24.84 31.05,-28.72 15.13,-3.1 29.1,-7.37 41.13,-12.41l0 19.01c0,29.11 -17.46,46.18 -46.18,46.18zm12.03 -128.06c21.34,0 32.21,5.82 33.37,17.46 0,11.26 -11.25,17.85 -33.37,20.57 -52,5.04 -87.7,18.24 -88.86,67.52 0,45.41 34.14,68.3 83.43,64.42 55.49,-3.88 89.64,-29.1 89.64,-85.76l0 -69.85c-1.16,-38.03 -29.88,-56.66 -86.54,-56.66 -47.34,0 -74.12,18.63 -80.33,56.66l51.62 0c2.71,-9.7 12.8,-14.36 31.04,-14.36zm290.27 103.22l-38.81 0c-6.6,0 -12.42,2.33 -17.46,7.38 -8.54,9.7 -19.02,14.74 -31.05,14.74 -28.71,0.39 -43.07,-20.18 -43.07,-60.92 0,-40.75 13.58,-61.32 40.74,-61.32 16.3,0 27.17,7.38 33.38,21.35l56.27 0c-8.93,-44.63 -38.42,-66.75 -88.09,-66.75 -63.26,1.17 -94.69,36.48 -94.69,106.72 1.55,70.63 33.37,106.33 95.46,106.33 47.73,1.16 78,-25.62 87.32,-67.53zm27.16 -201.01l0 40.36 51.61 0 0 -15.14c0.39,-16.68 -7.76,-25.22 -24.83,-25.22l-26.78 0zm0 58.6l0 205.28 51.61 0 0 -180.45c0,-16.68 -8.15,-24.83 -24.83,-24.83l-26.78 0zm465.68 205.28l0 -120.69c0.39,-58.59 -28.33,-87.7 -86.93,-87.7 -58.6,0 -88.09,29.11 -88.09,87.7l0 120.69 52.39 0 0 -131.16c0.39,-21.35 12.03,-31.83 34.93,-31.83 22.89,0 34.53,10.48 35.7,31.83l0 105.55c0,16.3 8.53,24.45 25.61,25.61l26.39 0zm-2677.62 234c0,-54.33 -30.27,-75.28 -84.98,-75.28l-100.12 0c-15.14,0 -27.17,13.19 -27.17,28.33l0 235.55 53.94 0 0 -102.45 57.44 0c31.82,0 37.64,10.09 39.58,41.91 0.39,25.61 1.16,40.75 2.33,44.63 0.38,5.43 1.55,10.87 4.26,15.91l59.38 0c-5.05,-3.49 -8.15,-9.31 -8.54,-17.46l-2.33 -51.61c-1.16,-17.08 -3.49,-30.27 -8.15,-39.2 -5.43,-8.15 -13.97,-14.36 -25.22,-18.24 25.22,-6.98 39.58,-28.71 39.58,-62.09zm-54.72 5.05c0,25.61 -14.35,34.92 -39.97,34.92l-63.64 0 0 -69.46 66.75 0c24.06,0 36.86,10.48 36.86,34.54zm266.22 120.68l-38.03 0c-6.99,0 -12.81,2.33 -17.47,7.38 -10.09,9.7 -21.34,14.74 -33.37,14.74 -25.22,0 -38.81,-15.91 -40.75,-47.34l132.72 0c3.88,-80.33 -26.78,-120.3 -91.97,-120.3 -62.48,0.39 -93.91,35.32 -93.91,105.17 0,69.85 31.04,105.94 93.13,107.88 50.45,0 78.39,-24.06 89.65,-67.53zm-89.65 -103.22c22.12,0 34.93,13.97 38.03,41.13l-77.22 0c3.88,-27.16 17.07,-41.13 39.19,-41.13zm188.99 128.06c-16.3,0 -24.83,-7.76 -26,-24.06 0,-15.13 10.48,-24.84 31.05,-28.72 15.13,-3.1 29.1,-7.37 41.13,-12.41l0 19.01c0,29.11 -17.46,46.18 -46.18,46.18zm12.03 -128.06c21.34,0 32.21,5.82 33.37,17.46 0,11.26 -11.25,17.85 -33.37,20.57 -52,5.04 -87.7,18.24 -88.86,67.52 0,45.41 34.14,68.3 83.43,64.42 55.49,-3.88 89.64,-29.1 89.64,-85.76l0 -69.85c-1.16,-38.03 -29.88,-56.66 -86.54,-56.66 -47.34,0 -74.12,18.63 -80.33,56.66l51.62 0c2.71,-9.7 12.8,-14.36 31.04,-14.36zm290.27 103.22l-38.81 0c-6.6,0 -12.42,2.33 -17.46,7.38 -8.54,9.7 -19.02,14.74 -31.05,14.74 -28.71,0.39 -43.07,-20.18 -43.07,-60.92 0,-40.75 13.58,-61.32 40.74,-61.32 16.3,0 27.17,7.38 33.38,21.35l56.27 0c-8.93,-44.63 -38.42,-66.75 -88.09,-66.75 -63.26,1.17 -94.69,36.48 -94.69,106.72 1.55,70.63 33.37,106.33 95.46,106.33 47.73,1.16 78,-25.62 87.32,-67.53zm109.82 -131.16l0 -11.25 -31.05 0 0 -32.6c0,-13.58 -11.25,-26 -24.83,-26l-26.78 0 0 224.3c-0.39,22.89 8.93,34.92 28.33,36.86 19.4,1.94 37.64,1.94 54.33,0.39l0 -39.19 -15.91 0c-10.09,0 -15.14,-4.66 -15.14,-13.2l0 -113.7 5.44 0c14.36,0 25.61,-10.86 25.61,-25.61zm405.13 15.13c0,-55.1 -29.1,-84.98 -84.98,-84.98l-89.64 0c-15.14,0 -27.17,13.19 -27.17,28.33l0 235.55 53.94 0 0 -93.91 66.75 0c52.77,0 81.1,-32.99 81.1,-84.99zm-147.07 37.26l0 -76.45 55.1 0c25.23,0 38.03,12.81 38.03,38.42 0,25.61 -13.58,38.42 -40.74,38.03l-52.39 0zm171.13 141.64l52.39 0 0 -106.72c0,-29.88 14.36,-45.01 43.07,-45.01l17.47 0 0 -53.55 -7.38 0c-68.68,0 -104,32.98 -105.55,99.34l0 105.94zm228.57 -208.39c-62.09,0 -93.13,35.32 -93.13,106.72 0,70.63 31.04,106.33 93.13,106.33 62.09,0 93.53,-35.7 93.53,-106.33 0,-71.4 -31.44,-106.72 -93.53,-106.72zm0 45.4c26.39,0 39.59,19.8 39.59,59.77 -0.39,40.74 -13.59,61.7 -39.97,61.7 -26.39,0 -39.97,-20.18 -40.36,-60.15 0,-40.75 13.58,-61.32 40.74,-61.32zm118.36 -100.89l0 40.36 51.61 0 0 -15.14c0.39,-16.68 -7.76,-25.22 -24.83,-25.22l-26.78 0zm51.61 295.7l0 -212.27c0,-16.68 -8.15,-24.83 -24.83,-24.83l-26.78 0 0 228.18c0,8.53 -3.49,13.58 -12.8,13.58l-9.71 0 0 45.4 8.93 0c40.75,0 65.19,-11.64 65.19,-50.06zm210.34 -94.69l-38.03 0c-6.99,0 -12.81,2.33 -17.47,7.38 -10.09,9.7 -21.34,14.74 -33.37,14.74 -25.22,0 -38.81,-15.91 -40.75,-47.34l132.72 0c3.88,-80.33 -26.78,-120.3 -91.97,-120.3 -62.48,0.39 -93.91,35.32 -93.91,105.17 0,69.85 31.04,105.94 93.13,107.88 50.45,0 78.39,-24.06 89.65,-67.53zm-89.65 -103.22c22.12,0 34.93,13.97 38.03,41.13l-77.22 0c3.88,-27.16 17.07,-41.13 39.19,-41.13zm298.04 103.22l-38.81 0c-6.6,0 -12.42,2.33 -17.46,7.38 -8.54,9.7 -19.02,14.74 -31.05,14.74 -28.71,0.39 -43.07,-20.18 -43.07,-60.92 0,-40.75 13.58,-61.32 40.74,-61.32 16.3,0 27.17,7.38 33.38,21.35l56.27 0c-8.93,-44.63 -38.42,-66.75 -88.09,-66.75 -63.26,1.17 -94.69,36.48 -94.69,106.72 1.55,70.63 33.37,106.33 95.46,106.33 47.73,1.16 78,-25.62 87.32,-67.53zm109.82 -131.16l0 -11.25 -31.05 0 0 -32.6c0,-13.58 -11.25,-26 -24.83,-26l-26.78 0 0 224.3c-0.39,22.89 8.93,34.92 28.33,36.86 19.4,1.94 37.64,1.94 54.33,0.39l0 -39.19 -15.91 0c-10.09,0 -15.14,-4.66 -15.14,-13.2l0 -113.7 5.44 0c14.36,0 25.61,-10.86 25.61,-25.61zm305 -436.96c-62.09,0 -93.13,35.32 -93.13,106.72 0,70.63 31.04,106.33 93.13,106.33 62.09,0 93.53,-35.7 93.53,-106.33 0,-71.4 -31.44,-106.72 -93.53,-106.72zm0 45.4c26.39,0 39.59,19.8 39.59,59.77 -0.39,40.74 -13.59,61.7 -39.97,61.7 -26.39,0 -39.97,-20.18 -40.36,-60.15 0,-40.75 13.58,-61.32 40.74,-61.32z"/>
 </g>
</svg>
